<svg xmlns="http://www.w3.org/2000/svg" contain="paint" buffered-rendering="static" viewBox="0 0 50 50" class="status-badge__icon medium icon-qualify-green nessy-only" aria-labelledby="icon-label-569962b1b62f05288e594e9cfefec9f0" role="img"><title id="icon-label-569962b1b62f05288e594e9cfefec9f0">Paid</title><path d="M14.99 12.31l6.03 1.39 4.05-4.67 4.06 4.67 6.03-1.39.54 6.16 5.69 2.41-3.19 5.31 3.19 5.3-5.69 2.41-.54 6.16-6.03-1.39-4.06 4.67-4.05-4.67-6.03 1.39-.54-6.16-5.69-2.41 3.18-5.3-3.18-5.31 5.69-2.41zM45.62 8.36l1.88 2.5 2.5 1.88-2.5 1.88-1.88 2.5-1.88-2.5-2.5-1.88 2.5-1.88z" fill="#27d3bc"></path><path d="M38.89 3.66l.81 1.08 1.07.81-1.07.81-.81 1.07-.81-1.07-1.07-.81 1.07-.81z" fill="#062846"></path><path d="M4.38 37.58l1.88 2.49 2.5 1.89-2.5 1.88-1.88 2.5-1.88-2.5L0 41.96l2.5-1.89z" fill="#27d3bc"></path><path d="M35.16 40.06l-6.03-1.39-4.06 4.67-4.05-4.67-6.03 1.39-.54-6.16-5.69-2.41 3.18-5.3-3.18-5.31 5.69-2.41.54-6.16" fill="none" stroke="#062846" stroke-miterlimit="10"></path><path d="M21.54 35.15l-6.09-6.08L18 26.52l3.45 3.46 11.39-11.39 2.54 2.56z" fill="#e5faf7"></path><path d="M35.38 21.15l-13.84 14-6.09-6.08" fill="none" stroke="#062846" stroke-miterlimit="10"></path></svg>