<svg xmlns="http://www.w3.org/2000/svg" viewBox="0 0 220 100"><g data-name="Layer 2"><g data-name="Layer 1"><path d="M0 0h220v100H0z" style="fill:none"/><path d="M20.72 80.91V58.37h4.47L34.92 73V58.37h4.78v22.54h-4.47l-9.73-14.7v14.7Zm23.69 0V58.37h14.66v4.09h-9.83v5h8.93v4.09h-8.93v5.24h10.14v4.09Zm24.27 0V62.46H62v-4.09h18.18v4.09h-6.66v18.45Zm14.38-.99v-2.54a17.42 17.42 0 0 0 6.51 1.39 7.07 7.07 0 0 0 4.08-1 3.26 3.26 0 0 0 1.47-2.82 3 3 0 0 0-.9-2.21A10.22 10.22 0 0 0 91 71l-2.42-1a11.58 11.58 0 0 1-4.32-2.62A4.86 4.86 0 0 1 82.94 64a5.23 5.23 0 0 1 2.11-4.4 9.28 9.28 0 0 1 5.76-1.6 14.41 14.41 0 0 1 3.14.36 10.4 10.4 0 0 1 2.75 1v2.55a14.8 14.8 0 0 0-5.83-1.37c-3.36 0-5.05 1.15-5.05 3.44a2.54 2.54 0 0 0 .9 2 11.34 11.34 0 0 0 3.16 1.7l2.39.93a11.38 11.38 0 0 1 4.42 2.71A5.31 5.31 0 0 1 98 74.86a5.66 5.66 0 0 1-2.16 4.73 9.55 9.55 0 0 1-6 1.69 16.35 16.35 0 0 1-2.46-.19A18.32 18.32 0 0 1 85 80.6a12 12 0 0 1-1.94-.68Zm18.64-9.18V58.37h2.88v12.34q0 4.13 1.39 6.09a6 6 0 0 0 8.91 0q1.41-2 1.41-6.09V58.37h2.89v12.37q0 5.43-2.19 8c-1.45 1.71-3.64 2.56-6.55 2.56s-5.13-.85-6.58-2.56-2.16-4.38-2.16-8Zm22.5 10.17V58.37h2.88v22.54Zm13.89 0V60.85H131v-2.48h17.1v2.48H141v20.06Zm13.91 0V58.37h13.88v2.48h-11v7.38H165v2.48h-10.1v7.72h11.31v2.48ZM97.05 35.93h12.18l-6.44-10.39L91 44.3h-5.41L100 21.79a3.43 3.43 0 0 1 5.59 0L120 44.3h-5.38l-2.54-4.19H99.74l-2.69-4.18m55.88 4.18V20.56h-4.57V42a2.19 2.19 0 0 0 .64 1.6 2.33 2.33 0 0 0 1.67.7h20.8l2.71-4.19h-21.25m-75.53-3.5a8 8 0 0 0 0-16h-20V44.3H62V24.75h15.1a3.85 3.85 0 0 1 0 7.69H64.22L77.86 44.3h6.62l-9.15-7.69h2.07M29.34 44.3h13.8a11.87 11.87 0 0 0 0-23.74h-13.8a11.87 11.87 0 1 0 0 23.74m13.48-4.18H29.64a7.69 7.69 0 0 1 0-15.37h13.18a7.69 7.69 0 1 1 0 15.37m86.7 4.18h14.09l2.67-4.18h-16.45a7.69 7.69 0 1 1 0-15.37h13.39l2.7-4.19h-16.4a11.87 11.87 0 1 0 0 23.74m55.84-4.18a7.69 7.69 0 0 1-7.4-5.59h19.51l2.69-4.19H178a7.69 7.69 0 0 1 7.4-5.59h13.39l2.68-4.19h-16.42a11.87 11.87 0 1 0 0 23.74h14.09l2.68-4.18h-16.46" style="fill:#312d2a"/></g></g></svg>